<svg width="494" height="435" viewBox="0 0 494 435" fill="none" xmlns="http://www.w3.org/2000/svg">
<mask id="path-1-outside-1_3_17" maskUnits="userSpaceOnUse" x="0" y="0" width="494" height="435" fill="black">
<rect fill="white" width="494" height="435"/>
<path fill-rule="evenodd" clip-rule="evenodd" d="M51.261 1.28701C65.698 1.44301 89.323 1.44301 103.761 1.28701C118.198 1.13101 106.386 1.00301 77.511 1.00301C48.636 1.00301 36.823 1.13101 51.261 1.28701ZM345.83 1.28701C358.93 1.44501 380.08 1.44501 392.83 1.28701C405.579 1.12901 394.861 0.999006 369.011 1.00001C343.161 1.00001 332.729 1.12901 345.83 1.28701ZM17.761 3.02901C15.973 3.80601 14.511 4.71501 14.511 5.04901C14.511 5.38301 15.026 5.33801 15.655 4.94901C16.284 4.56001 18.647 3.66401 20.905 2.95701C23.163 2.25001 24.111 1.65901 23.011 1.64401C21.911 1.62901 19.549 2.25201 17.761 3.02901ZM132.324 2.22101C133.045 2.51001 133.908 2.47401 134.24 2.14201C134.572 1.81001 133.982 1.57401 132.928 1.61701C131.763 1.66501 131.526 1.90201 132.324 2.22101ZM317.261 2.20001C317.949 2.47801 319.074 2.47801 319.761 2.20001C320.449 1.92301 319.886 1.69601 318.511 1.69601C317.136 1.69601 316.574 1.92301 317.261 2.20001ZM419.511 2.53801C422.93 3.63301 425.559 3.63301 423.011 2.53801C421.911 2.06501 420.111 1.69201 419.011 1.70801C417.403 1.73201 417.501 1.89401 419.511 2.53801ZM136.511 3.25401C137.336 3.56101 139.249 4.43701 140.761 5.20101C142.273 5.96501 143.511 6.36401 143.511 6.08901C143.511 5.30401 137.756 2.52901 136.311 2.61701C135.438 2.67001 135.503 2.87901 136.511 3.25401ZM310.511 3.58401C309.416 4.32501 309.82 4.41801 312.011 3.92801C315.688 3.10501 316.486 2.53301 313.928 2.55301C312.874 2.56201 311.336 3.02501 310.511 3.58401ZM425.511 4.03801C425.511 4.31301 425.736 4.53801 426.011 4.53801C426.286 4.53801 426.511 4.31301 426.511 4.03801C426.511 3.76301 426.286 3.53801 426.011 3.53801C425.736 3.53801 425.511 3.76301 425.511 4.03801ZM302.457 7.41101C300.012 8.991 296.213 12.254 294.014 14.661L290.018 19.038L295.014 14.352C297.763 11.774 302.036 8.51701 304.511 7.11401C306.986 5.71001 308.537 4.557 307.957 4.55C307.377 4.543 304.902 5.83101 302.457 7.41101ZM427.511 5.03801C427.511 5.31301 427.736 5.53801 428.011 5.53801C428.286 5.53801 428.511 5.31301 428.511 5.03801C428.511 4.76301 428.286 4.53801 428.011 4.53801C427.736 4.53801 427.511 4.76301 427.511 5.03801ZM10.438 7.793C9.023 9.028 7.245 10.938 6.486 12.038C5.727 13.138 6.997 12.259 9.308 10.085C13.143 6.47801 13.969 5.52901 13.261 5.543C13.124 5.546 11.853 6.558 10.438 7.793ZM432.126 7.70601C433.713 8.89801 436.39 11.035 438.075 12.456C439.76 13.876 438.887 12.901 436.135 10.288C433.382 7.67501 430.705 5.53801 430.186 5.53801C429.666 5.53801 430.539 6.51301 432.126 7.70601ZM148.525 11.141C151.008 13.834 156.018 20.763 159.66 26.538C163.302 32.313 179.862 58.638 196.459 85.038C213.057 111.438 227.257 133.67 228.015 134.443C229.191 135.642 230.282 134.048 235.456 123.567C238.791 116.812 240.921 111.783 240.188 112.391C239.149 113.253 238.388 112.663 236.729 109.713C233.279 103.574 199.538 50.34 196.78 46.683C193.748 42.664 186.474 37.874 181.276 36.475C179.205 35.917 177.511 35.077 177.511 34.608C177.511 34.138 175.54 31.563 173.132 28.884C168.938 24.219 161.491 19.538 158.264 19.538C157.424 19.538 154.773 17.114 152.374 14.151C149.974 11.189 147.111 8.19701 146.011 7.50401C144.911 6.81001 146.042 8.44701 148.525 11.141ZM4.511 15.038C4.511 15.313 4.736 15.538 5.011 15.538C5.286 15.538 5.511 15.313 5.511 15.038C5.511 14.763 5.286 14.538 5.011 14.538C4.736 14.538 4.511 14.763 4.511 15.038ZM3.135 18.077C2.792 18.97 2.54 20.227 2.574 20.87C2.609 21.512 3.069 20.96 3.596 19.643C4.123 18.325 4.375 17.069 4.156 16.85C3.937 16.631 3.477 17.183 3.135 18.077ZM442.905 19.128C446.496 26.568 446.595 31.973 446.283 204.538C446.035 341.911 445.726 374.779 444.653 377.947C442.56 384.127 438.672 389.231 433.65 392.391C424.344 398.246 427.682 398.038 342.918 398.038H264.826L266.714 401.538C269.637 406.956 275.281 411.395 281.788 413.392C286.784 414.926 288.008 415.789 289.85 419.073C292.619 424.008 299.147 428.993 305.805 431.256C310.566 432.874 317.298 433.05 384.511 433.313C461.152 433.614 468.03 433.32 475.844 429.408C485.072 424.789 489.813 417.971 491.515 406.871C492.223 402.254 492.474 344.906 492.287 230.038C492.019 64.658 491.959 59.916 490.082 55.538C486.296 46.71 480.498 41.238 471.182 37.701C468.024 36.503 465.643 34.639 463.515 31.702C460.205 27.133 453.436 22.327 447.608 20.408C445.63 19.756 443.427 18.506 442.713 17.631C441.875 16.603 441.944 17.135 442.905 19.128ZM288.916 20.693C288.473 21.408 288.641 21.576 289.356 21.133C290.509 20.421 290.904 19.538 290.07 19.538C289.827 19.538 289.308 20.058 288.916 20.693ZM1.669 24.538C1.669 25.913 1.896 26.476 2.173 25.788C2.451 25.101 2.451 23.976 2.173 23.288C1.896 22.601 1.669 23.163 1.669 24.538ZM286.511 24.538C285.922 25.638 285.666 26.538 285.941 26.538C286.216 26.538 286.922 25.638 287.511 24.538C288.1 23.438 288.356 22.538 288.081 22.538C287.806 22.538 287.1 23.438 286.511 24.538ZM282.511 31.538C281.389 33.738 280.695 35.538 280.97 35.538C281.245 35.538 282.389 33.738 283.511 31.538C284.633 29.338 285.327 27.538 285.052 27.538C284.777 27.538 283.633 29.338 282.511 31.538ZM1 206.538C1 304.163 1.117 344.101 1.261 295.288C1.404 246.476 1.404 166.601 1.261 117.788C1.117 68.976 1 108.913 1 206.538ZM279.511 37.038C279.511 37.313 279.736 37.538 280.011 37.538C280.286 37.538 280.511 37.313 280.511 37.038C280.511 36.763 280.286 36.538 280.011 36.538C279.736 36.538 279.511 36.763 279.511 37.038ZM278.511 39.038C278.511 39.313 278.736 39.538 279.011 39.538C279.286 39.538 279.511 39.313 279.511 39.038C279.511 38.763 279.286 38.538 279.011 38.538C278.736 38.538 278.511 38.763 278.511 39.038ZM277.511 41.038C277.511 41.313 277.736 41.538 278.011 41.538C278.286 41.538 278.511 41.313 278.511 41.038C278.511 40.763 278.286 40.538 278.011 40.538C277.736 40.538 277.511 40.763 277.511 41.038ZM272.511 50.538C270.299 54.938 268.714 58.538 268.989 58.538C269.264 58.538 271.299 54.938 273.511 50.538C275.723 46.138 277.308 42.538 277.033 42.538C276.758 42.538 274.723 46.138 272.511 50.538ZM267.511 60.038C267.511 60.313 267.736 60.538 268.011 60.538C268.286 60.538 268.511 60.313 268.511 60.038C268.511 59.763 268.286 59.538 268.011 59.538C267.736 59.538 267.511 59.763 267.511 60.038ZM266.511 62.038C266.511 62.313 266.736 62.538 267.011 62.538C267.286 62.538 267.511 62.313 267.511 62.038C267.511 61.763 267.286 61.538 267.011 61.538C266.736 61.538 266.511 61.763 266.511 62.038ZM265.511 64.038C265.511 64.313 265.736 64.538 266.011 64.538C266.286 64.538 266.511 64.313 266.511 64.038C266.511 63.763 266.286 63.538 266.011 63.538C265.736 63.538 265.511 63.763 265.511 64.038ZM261.011 72.538C259.072 76.388 257.711 79.538 257.986 79.538C258.261 79.538 260.072 76.388 262.011 72.538C263.95 68.688 265.311 65.538 265.036 65.538C264.761 65.538 262.95 68.688 261.011 72.538ZM256.511 81.038C256.511 81.313 256.736 81.538 257.011 81.538C257.286 81.538 257.511 81.313 257.511 81.038C257.511 80.763 257.286 80.538 257.011 80.538C256.736 80.538 256.511 80.763 256.511 81.038ZM255.511 83.038C255.511 83.313 255.736 83.538 256.011 83.538C256.286 83.538 256.511 83.313 256.511 83.038C256.511 82.763 256.286 82.538 256.011 82.538C255.736 82.538 255.511 82.763 255.511 83.038ZM254.511 85.038C254.511 85.313 254.736 85.538 255.011 85.538C255.286 85.538 255.511 85.313 255.511 85.038C255.511 84.763 255.286 84.538 255.011 84.538C254.736 84.538 254.511 84.763 254.511 85.038ZM253.511 87.038C253.511 87.313 253.736 87.538 254.011 87.538C254.286 87.538 254.511 87.313 254.511 87.038C254.511 86.763 254.286 86.538 254.011 86.538C253.736 86.538 253.511 86.763 253.511 87.038ZM248.511 96.538C246.299 100.938 244.714 104.538 244.989 104.538C245.264 104.538 247.299 100.938 249.511 96.538C251.723 92.138 253.308 88.538 253.033 88.538C252.758 88.538 250.723 92.138 248.511 96.538ZM243.511 106.038C243.511 106.313 243.736 106.538 244.011 106.538C244.286 106.538 244.511 106.313 244.511 106.038C244.511 105.763 244.286 105.538 244.011 105.538C243.736 105.538 243.511 105.763 243.511 106.038ZM242.511 108.038C242.511 108.313 242.736 108.538 243.011 108.538C243.286 108.538 243.511 108.313 243.511 108.038C243.511 107.763 243.286 107.538 243.011 107.538C242.736 107.538 242.511 107.763 242.511 108.038ZM241.511 110.038C241.511 110.313 241.736 110.538 242.011 110.538C242.286 110.538 242.511 110.313 242.511 110.038C242.511 109.763 242.286 109.538 242.011 109.538C241.736 109.538 241.511 109.763 241.511 110.038ZM238.357 225.538C237.447 226.913 222.439 254.363 205.006 286.538C187.573 318.713 171.384 347.513 169.031 350.538C163.871 357.174 158.016 360.447 150.761 360.752C147.874 360.874 145.511 361.29 145.511 361.678C145.511 363.267 152.358 371.201 156.369 374.26C158.734 376.064 162.453 377.825 164.634 378.174C167.53 378.637 168.97 379.513 169.975 381.423C171.844 384.976 179.259 391.942 183.382 394.017C187.799 396.241 198.813 396.273 204.082 394.077C208.551 392.215 214.66 386.697 217.964 381.538C219.197 379.613 224.662 369.938 230.108 360.038L240.011 342.038L240.289 299.538C240.442 276.163 240.442 249.388 240.289 240.038C240.024 223.835 239.933 223.155 238.357 225.538ZM53.511 228.986C53.511 234.024 57.085 316.435 59.029 356.216C61.19 400.454 62.527 398.417 31.139 398.727C20.619 398.831 14.544 399.077 17.641 399.273L23.27 399.631L23.928 403.743C25.354 412.659 30.539 416.538 41.031 416.538C46.466 416.538 46.511 416.563 46.511 419.57C46.511 425.18 49.075 429.438 53.723 431.548C57.483 433.255 60.35 433.497 77.011 433.514C98.833 433.538 101.66 432.803 104.846 426.283C106.611 422.67 106.621 421.24 105.102 388.283C104.234 369.448 103.286 347.738 102.995 340.038C102.705 332.338 102.207 322.271 101.889 317.667C101.499 312.022 101.648 309.505 102.345 309.935C102.914 310.287 101.696 307.529 99.64 303.806C93.346 292.41 55.315 227.1 54.385 226.088C53.873 225.532 53.511 226.733 53.511 228.986ZM103.511 312.038C103.511 312.313 103.736 312.538 104.011 312.538C104.286 312.538 104.511 312.313 104.511 312.038C104.511 311.763 104.286 311.538 104.011 311.538C103.736 311.538 103.511 311.763 103.511 312.038ZM105.511 315.538C106.1 316.638 106.806 317.538 107.081 317.538C107.356 317.538 107.1 316.638 106.511 315.538C105.922 314.438 105.216 313.538 104.941 313.538C104.666 313.538 104.922 314.438 105.511 315.538ZM108.511 320.538C109.1 321.638 109.806 322.538 110.081 322.538C110.356 322.538 110.1 321.638 109.511 320.538C108.922 319.438 108.216 318.538 107.941 318.538C107.666 318.538 107.922 319.438 108.511 320.538ZM111.511 325.538C112.1 326.638 112.806 327.538 113.081 327.538C113.356 327.538 113.1 326.638 112.511 325.538C111.922 324.438 111.216 323.538 110.941 323.538C110.666 323.538 110.922 324.438 111.511 325.538ZM115.011 331.538C115.864 333.188 116.787 334.538 117.062 334.538C117.337 334.538 116.864 333.188 116.011 331.538C115.158 329.888 114.235 328.538 113.96 328.538C113.685 328.538 114.158 329.888 115.011 331.538ZM118.821 338.038C119.666 339.688 121.107 341.938 122.021 343.038C122.935 344.138 122.672 343.238 121.437 341.038C118.712 336.184 116.67 333.844 118.821 338.038ZM124.5 347.038C128.996 353.459 138.714 361.669 140.136 360.246C140.378 360.005 139.192 359.234 137.502 358.534C135.811 357.834 131.879 354.511 128.764 351.15C125.648 347.788 123.73 345.938 124.5 347.038ZM239.885 359.038C239.887 365.088 240.052 367.434 240.251 364.251C240.45 361.069 240.448 356.119 240.247 353.251C240.046 350.384 239.883 352.988 239.885 359.038ZM142.324 361.221C143.045 361.51 143.908 361.474 144.24 361.142C144.572 360.81 143.982 360.574 142.928 360.617C141.763 360.665 141.526 360.902 142.324 361.221ZM240.669 373.538C240.669 374.913 240.896 375.476 241.173 374.788C241.451 374.101 241.451 372.976 241.173 372.288C240.896 371.601 240.669 372.163 240.669 373.538ZM241.59 378.121C241.638 379.286 241.875 379.523 242.194 378.726C242.483 378.004 242.447 377.141 242.115 376.809C241.783 376.477 241.547 377.067 241.59 378.121ZM242.551 380.838C242.465 382.56 245.501 387.189 248.676 390.176C252.058 393.358 258.351 397.031 259.114 396.268C259.344 396.039 257.766 395.055 255.608 394.082C251.243 392.114 246.563 387.595 244.168 383.038C243.301 381.388 242.573 380.398 242.551 380.838ZM1.59 389.121C1.638 390.286 1.875 390.523 2.194 389.726C2.483 389.004 2.447 388.141 2.115 387.809C1.783 387.477 1.547 388.067 1.59 389.121ZM2.511 392.216C2.511 392.773 3.523 394.085 4.761 395.133L7.011 397.038L5.022 394.538C3.928 393.163 2.915 391.851 2.772 391.621C2.628 391.392 2.511 391.66 2.511 392.216ZM7.511 397.038C7.511 397.313 7.736 397.538 8.011 397.538C8.286 397.538 8.511 397.313 8.511 397.038C8.511 396.763 8.286 396.538 8.011 396.538C7.736 396.538 7.511 396.763 7.511 397.038ZM261.324 397.221C262.045 397.51 262.908 397.474 263.24 397.142C263.572 396.81 262.982 396.574 261.928 396.617C260.763 396.665 260.526 396.902 261.324 397.221ZM9.511 398.038C9.511 398.313 9.736 398.538 10.011 398.538C10.286 398.538 10.511 398.313 10.511 398.038C10.511 397.763 10.286 397.538 10.011 397.538C9.736 397.538 9.511 397.763 9.511 398.038Z"/>
</mask>
<path fill-rule="evenodd" clip-rule="evenodd" d="M51.261 1.28701C65.698 1.44301 89.323 1.44301 103.761 1.28701C118.198 1.13101 106.386 1.00301 77.511 1.00301C48.636 1.00301 36.823 1.13101 51.261 1.28701ZM345.83 1.28701C358.93 1.44501 380.08 1.44501 392.83 1.28701C405.579 1.12901 394.861 0.999006 369.011 1.00001C343.161 1.00001 332.729 1.12901 345.83 1.28701ZM17.761 3.02901C15.973 3.80601 14.511 4.71501 14.511 5.04901C14.511 5.38301 15.026 5.33801 15.655 4.94901C16.284 4.56001 18.647 3.66401 20.905 2.95701C23.163 2.25001 24.111 1.65901 23.011 1.64401C21.911 1.62901 19.549 2.25201 17.761 3.02901ZM132.324 2.22101C133.045 2.51001 133.908 2.47401 134.24 2.14201C134.572 1.81001 133.982 1.57401 132.928 1.61701C131.763 1.66501 131.526 1.90201 132.324 2.22101ZM317.261 2.20001C317.949 2.47801 319.074 2.47801 319.761 2.20001C320.449 1.92301 319.886 1.69601 318.511 1.69601C317.136 1.69601 316.574 1.92301 317.261 2.20001ZM419.511 2.53801C422.93 3.63301 425.559 3.63301 423.011 2.53801C421.911 2.06501 420.111 1.69201 419.011 1.70801C417.403 1.73201 417.501 1.89401 419.511 2.53801ZM136.511 3.25401C137.336 3.56101 139.249 4.43701 140.761 5.20101C142.273 5.96501 143.511 6.36401 143.511 6.08901C143.511 5.30401 137.756 2.52901 136.311 2.61701C135.438 2.67001 135.503 2.87901 136.511 3.25401ZM310.511 3.58401C309.416 4.32501 309.82 4.41801 312.011 3.92801C315.688 3.10501 316.486 2.53301 313.928 2.55301C312.874 2.56201 311.336 3.02501 310.511 3.58401ZM425.511 4.03801C425.511 4.31301 425.736 4.53801 426.011 4.53801C426.286 4.53801 426.511 4.31301 426.511 4.03801C426.511 3.76301 426.286 3.53801 426.011 3.53801C425.736 3.53801 425.511 3.76301 425.511 4.03801ZM302.457 7.41101C300.012 8.991 296.213 12.254 294.014 14.661L290.018 19.038L295.014 14.352C297.763 11.774 302.036 8.51701 304.511 7.11401C306.986 5.71001 308.537 4.557 307.957 4.55C307.377 4.543 304.902 5.83101 302.457 7.41101ZM427.511 5.03801C427.511 5.31301 427.736 5.53801 428.011 5.53801C428.286 5.53801 428.511 5.31301 428.511 5.03801C428.511 4.76301 428.286 4.53801 428.011 4.53801C427.736 4.53801 427.511 4.76301 427.511 5.03801ZM10.438 7.793C9.023 9.028 7.245 10.938 6.486 12.038C5.727 13.138 6.997 12.259 9.308 10.085C13.143 6.47801 13.969 5.52901 13.261 5.543C13.124 5.546 11.853 6.558 10.438 7.793ZM432.126 7.70601C433.713 8.89801 436.39 11.035 438.075 12.456C439.76 13.876 438.887 12.901 436.135 10.288C433.382 7.67501 430.705 5.53801 430.186 5.53801C429.666 5.53801 430.539 6.51301 432.126 7.70601ZM148.525 11.141C151.008 13.834 156.018 20.763 159.66 26.538C163.302 32.313 179.862 58.638 196.459 85.038C213.057 111.438 227.257 133.67 228.015 134.443C229.191 135.642 230.282 134.048 235.456 123.567C238.791 116.812 240.921 111.783 240.188 112.391C239.149 113.253 238.388 112.663 236.729 109.713C233.279 103.574 199.538 50.34 196.78 46.683C193.748 42.664 186.474 37.874 181.276 36.475C179.205 35.917 177.511 35.077 177.511 34.608C177.511 34.138 175.54 31.563 173.132 28.884C168.938 24.219 161.491 19.538 158.264 19.538C157.424 19.538 154.773 17.114 152.374 14.151C149.974 11.189 147.111 8.19701 146.011 7.50401C144.911 6.81001 146.042 8.44701 148.525 11.141ZM4.511 15.038C4.511 15.313 4.736 15.538 5.011 15.538C5.286 15.538 5.511 15.313 5.511 15.038C5.511 14.763 5.286 14.538 5.011 14.538C4.736 14.538 4.511 14.763 4.511 15.038ZM3.135 18.077C2.792 18.97 2.54 20.227 2.574 20.87C2.609 21.512 3.069 20.96 3.596 19.643C4.123 18.325 4.375 17.069 4.156 16.85C3.937 16.631 3.477 17.183 3.135 18.077ZM442.905 19.128C446.496 26.568 446.595 31.973 446.283 204.538C446.035 341.911 445.726 374.779 444.653 377.947C442.56 384.127 438.672 389.231 433.65 392.391C424.344 398.246 427.682 398.038 342.918 398.038H264.826L266.714 401.538C269.637 406.956 275.281 411.395 281.788 413.392C286.784 414.926 288.008 415.789 289.85 419.073C292.619 424.008 299.147 428.993 305.805 431.256C310.566 432.874 317.298 433.05 384.511 433.313C461.152 433.614 468.03 433.32 475.844 429.408C485.072 424.789 489.813 417.971 491.515 406.871C492.223 402.254 492.474 344.906 492.287 230.038C492.019 64.658 491.959 59.916 490.082 55.538C486.296 46.71 480.498 41.238 471.182 37.701C468.024 36.503 465.643 34.639 463.515 31.702C460.205 27.133 453.436 22.327 447.608 20.408C445.63 19.756 443.427 18.506 442.713 17.631C441.875 16.603 441.944 17.135 442.905 19.128ZM288.916 20.693C288.473 21.408 288.641 21.576 289.356 21.133C290.509 20.421 290.904 19.538 290.07 19.538C289.827 19.538 289.308 20.058 288.916 20.693ZM1.669 24.538C1.669 25.913 1.896 26.476 2.173 25.788C2.451 25.101 2.451 23.976 2.173 23.288C1.896 22.601 1.669 23.163 1.669 24.538ZM286.511 24.538C285.922 25.638 285.666 26.538 285.941 26.538C286.216 26.538 286.922 25.638 287.511 24.538C288.1 23.438 288.356 22.538 288.081 22.538C287.806 22.538 287.1 23.438 286.511 24.538ZM282.511 31.538C281.389 33.738 280.695 35.538 280.97 35.538C281.245 35.538 282.389 33.738 283.511 31.538C284.633 29.338 285.327 27.538 285.052 27.538C284.777 27.538 283.633 29.338 282.511 31.538ZM1 206.538C1 304.163 1.117 344.101 1.261 295.288C1.404 246.476 1.404 166.601 1.261 117.788C1.117 68.976 1 108.913 1 206.538ZM279.511 37.038C279.511 37.313 279.736 37.538 280.011 37.538C280.286 37.538 280.511 37.313 280.511 37.038C280.511 36.763 280.286 36.538 280.011 36.538C279.736 36.538 279.511 36.763 279.511 37.038ZM278.511 39.038C278.511 39.313 278.736 39.538 279.011 39.538C279.286 39.538 279.511 39.313 279.511 39.038C279.511 38.763 279.286 38.538 279.011 38.538C278.736 38.538 278.511 38.763 278.511 39.038ZM277.511 41.038C277.511 41.313 277.736 41.538 278.011 41.538C278.286 41.538 278.511 41.313 278.511 41.038C278.511 40.763 278.286 40.538 278.011 40.538C277.736 40.538 277.511 40.763 277.511 41.038ZM272.511 50.538C270.299 54.938 268.714 58.538 268.989 58.538C269.264 58.538 271.299 54.938 273.511 50.538C275.723 46.138 277.308 42.538 277.033 42.538C276.758 42.538 274.723 46.138 272.511 50.538ZM267.511 60.038C267.511 60.313 267.736 60.538 268.011 60.538C268.286 60.538 268.511 60.313 268.511 60.038C268.511 59.763 268.286 59.538 268.011 59.538C267.736 59.538 267.511 59.763 267.511 60.038ZM266.511 62.038C266.511 62.313 266.736 62.538 267.011 62.538C267.286 62.538 267.511 62.313 267.511 62.038C267.511 61.763 267.286 61.538 267.011 61.538C266.736 61.538 266.511 61.763 266.511 62.038ZM265.511 64.038C265.511 64.313 265.736 64.538 266.011 64.538C266.286 64.538 266.511 64.313 266.511 64.038C266.511 63.763 266.286 63.538 266.011 63.538C265.736 63.538 265.511 63.763 265.511 64.038ZM261.011 72.538C259.072 76.388 257.711 79.538 257.986 79.538C258.261 79.538 260.072 76.388 262.011 72.538C263.95 68.688 265.311 65.538 265.036 65.538C264.761 65.538 262.95 68.688 261.011 72.538ZM256.511 81.038C256.511 81.313 256.736 81.538 257.011 81.538C257.286 81.538 257.511 81.313 257.511 81.038C257.511 80.763 257.286 80.538 257.011 80.538C256.736 80.538 256.511 80.763 256.511 81.038ZM255.511 83.038C255.511 83.313 255.736 83.538 256.011 83.538C256.286 83.538 256.511 83.313 256.511 83.038C256.511 82.763 256.286 82.538 256.011 82.538C255.736 82.538 255.511 82.763 255.511 83.038ZM254.511 85.038C254.511 85.313 254.736 85.538 255.011 85.538C255.286 85.538 255.511 85.313 255.511 85.038C255.511 84.763 255.286 84.538 255.011 84.538C254.736 84.538 254.511 84.763 254.511 85.038ZM253.511 87.038C253.511 87.313 253.736 87.538 254.011 87.538C254.286 87.538 254.511 87.313 254.511 87.038C254.511 86.763 254.286 86.538 254.011 86.538C253.736 86.538 253.511 86.763 253.511 87.038ZM248.511 96.538C246.299 100.938 244.714 104.538 244.989 104.538C245.264 104.538 247.299 100.938 249.511 96.538C251.723 92.138 253.308 88.538 253.033 88.538C252.758 88.538 250.723 92.138 248.511 96.538ZM243.511 106.038C243.511 106.313 243.736 106.538 244.011 106.538C244.286 106.538 244.511 106.313 244.511 106.038C244.511 105.763 244.286 105.538 244.011 105.538C243.736 105.538 243.511 105.763 243.511 106.038ZM242.511 108.038C242.511 108.313 242.736 108.538 243.011 108.538C243.286 108.538 243.511 108.313 243.511 108.038C243.511 107.763 243.286 107.538 243.011 107.538C242.736 107.538 242.511 107.763 242.511 108.038ZM241.511 110.038C241.511 110.313 241.736 110.538 242.011 110.538C242.286 110.538 242.511 110.313 242.511 110.038C242.511 109.763 242.286 109.538 242.011 109.538C241.736 109.538 241.511 109.763 241.511 110.038ZM238.357 225.538C237.447 226.913 222.439 254.363 205.006 286.538C187.573 318.713 171.384 347.513 169.031 350.538C163.871 357.174 158.016 360.447 150.761 360.752C147.874 360.874 145.511 361.29 145.511 361.678C145.511 363.267 152.358 371.201 156.369 374.26C158.734 376.064 162.453 377.825 164.634 378.174C167.53 378.637 168.97 379.513 169.975 381.423C171.844 384.976 179.259 391.942 183.382 394.017C187.799 396.241 198.813 396.273 204.082 394.077C208.551 392.215 214.66 386.697 217.964 381.538C219.197 379.613 224.662 369.938 230.108 360.038L240.011 342.038L240.289 299.538C240.442 276.163 240.442 249.388 240.289 240.038C240.024 223.835 239.933 223.155 238.357 225.538ZM53.511 228.986C53.511 234.024 57.085 316.435 59.029 356.216C61.19 400.454 62.527 398.417 31.139 398.727C20.619 398.831 14.544 399.077 17.641 399.273L23.27 399.631L23.928 403.743C25.354 412.659 30.539 416.538 41.031 416.538C46.466 416.538 46.511 416.563 46.511 419.57C46.511 425.18 49.075 429.438 53.723 431.548C57.483 433.255 60.35 433.497 77.011 433.514C98.833 433.538 101.66 432.803 104.846 426.283C106.611 422.67 106.621 421.24 105.102 388.283C104.234 369.448 103.286 347.738 102.995 340.038C102.705 332.338 102.207 322.271 101.889 317.667C101.499 312.022 101.648 309.505 102.345 309.935C102.914 310.287 101.696 307.529 99.64 303.806C93.346 292.41 55.315 227.1 54.385 226.088C53.873 225.532 53.511 226.733 53.511 228.986ZM103.511 312.038C103.511 312.313 103.736 312.538 104.011 312.538C104.286 312.538 104.511 312.313 104.511 312.038C104.511 311.763 104.286 311.538 104.011 311.538C103.736 311.538 103.511 311.763 103.511 312.038ZM105.511 315.538C106.1 316.638 106.806 317.538 107.081 317.538C107.356 317.538 107.1 316.638 106.511 315.538C105.922 314.438 105.216 313.538 104.941 313.538C104.666 313.538 104.922 314.438 105.511 315.538ZM108.511 320.538C109.1 321.638 109.806 322.538 110.081 322.538C110.356 322.538 110.1 321.638 109.511 320.538C108.922 319.438 108.216 318.538 107.941 318.538C107.666 318.538 107.922 319.438 108.511 320.538ZM111.511 325.538C112.1 326.638 112.806 327.538 113.081 327.538C113.356 327.538 113.1 326.638 112.511 325.538C111.922 324.438 111.216 323.538 110.941 323.538C110.666 323.538 110.922 324.438 111.511 325.538ZM115.011 331.538C115.864 333.188 116.787 334.538 117.062 334.538C117.337 334.538 116.864 333.188 116.011 331.538C115.158 329.888 114.235 328.538 113.96 328.538C113.685 328.538 114.158 329.888 115.011 331.538ZM118.821 338.038C119.666 339.688 121.107 341.938 122.021 343.038C122.935 344.138 122.672 343.238 121.437 341.038C118.712 336.184 116.67 333.844 118.821 338.038ZM124.5 347.038C128.996 353.459 138.714 361.669 140.136 360.246C140.378 360.005 139.192 359.234 137.502 358.534C135.811 357.834 131.879 354.511 128.764 351.15C125.648 347.788 123.73 345.938 124.5 347.038ZM239.885 359.038C239.887 365.088 240.052 367.434 240.251 364.251C240.45 361.069 240.448 356.119 240.247 353.251C240.046 350.384 239.883 352.988 239.885 359.038ZM142.324 361.221C143.045 361.51 143.908 361.474 144.24 361.142C144.572 360.81 143.982 360.574 142.928 360.617C141.763 360.665 141.526 360.902 142.324 361.221ZM240.669 373.538C240.669 374.913 240.896 375.476 241.173 374.788C241.451 374.101 241.451 372.976 241.173 372.288C240.896 371.601 240.669 372.163 240.669 373.538ZM241.59 378.121C241.638 379.286 241.875 379.523 242.194 378.726C242.483 378.004 242.447 377.141 242.115 376.809C241.783 376.477 241.547 377.067 241.59 378.121ZM242.551 380.838C242.465 382.56 245.501 387.189 248.676 390.176C252.058 393.358 258.351 397.031 259.114 396.268C259.344 396.039 257.766 395.055 255.608 394.082C251.243 392.114 246.563 387.595 244.168 383.038C243.301 381.388 242.573 380.398 242.551 380.838ZM1.59 389.121C1.638 390.286 1.875 390.523 2.194 389.726C2.483 389.004 2.447 388.141 2.115 387.809C1.783 387.477 1.547 388.067 1.59 389.121ZM2.511 392.216C2.511 392.773 3.523 394.085 4.761 395.133L7.011 397.038L5.022 394.538C3.928 393.163 2.915 391.851 2.772 391.621C2.628 391.392 2.511 391.66 2.511 392.216ZM7.511 397.038C7.511 397.313 7.736 397.538 8.011 397.538C8.286 397.538 8.511 397.313 8.511 397.038C8.511 396.763 8.286 396.538 8.011 396.538C7.736 396.538 7.511 396.763 7.511 397.038ZM261.324 397.221C262.045 397.51 262.908 397.474 263.24 397.142C263.572 396.81 262.982 396.574 261.928 396.617C260.763 396.665 260.526 396.902 261.324 397.221ZM9.511 398.038C9.511 398.313 9.736 398.538 10.011 398.538C10.286 398.538 10.511 398.313 10.511 398.038C10.511 397.763 10.286 397.538 10.011 397.538C9.736 397.538 9.511 397.763 9.511 398.038Z" fill="black"/>
<path fill-rule="evenodd" clip-rule="evenodd" d="M51.261 1.28701C65.698 1.44301 89.323 1.44301 103.761 1.28701C118.198 1.13101 106.386 1.00301 77.511 1.00301C48.636 1.00301 36.823 1.13101 51.261 1.28701ZM345.83 1.28701C358.93 1.44501 380.08 1.44501 392.83 1.28701C405.579 1.12901 394.861 0.999006 369.011 1.00001C343.161 1.00001 332.729 1.12901 345.83 1.28701ZM17.761 3.02901C15.973 3.80601 14.511 4.71501 14.511 5.04901C14.511 5.38301 15.026 5.33801 15.655 4.94901C16.284 4.56001 18.647 3.66401 20.905 2.95701C23.163 2.25001 24.111 1.65901 23.011 1.64401C21.911 1.62901 19.549 2.25201 17.761 3.02901ZM132.324 2.22101C133.045 2.51001 133.908 2.47401 134.24 2.14201C134.572 1.81001 133.982 1.57401 132.928 1.61701C131.763 1.66501 131.526 1.90201 132.324 2.22101ZM317.261 2.20001C317.949 2.47801 319.074 2.47801 319.761 2.20001C320.449 1.92301 319.886 1.69601 318.511 1.69601C317.136 1.69601 316.574 1.92301 317.261 2.20001ZM419.511 2.53801C422.93 3.63301 425.559 3.63301 423.011 2.53801C421.911 2.06501 420.111 1.69201 419.011 1.70801C417.403 1.73201 417.501 1.89401 419.511 2.53801ZM136.511 3.25401C137.336 3.56101 139.249 4.43701 140.761 5.20101C142.273 5.96501 143.511 6.36401 143.511 6.08901C143.511 5.30401 137.756 2.52901 136.311 2.61701C135.438 2.67001 135.503 2.87901 136.511 3.25401ZM310.511 3.58401C309.416 4.32501 309.82 4.41801 312.011 3.92801C315.688 3.10501 316.486 2.53301 313.928 2.55301C312.874 2.56201 311.336 3.02501 310.511 3.58401ZM425.511 4.03801C425.511 4.31301 425.736 4.53801 426.011 4.53801C426.286 4.53801 426.511 4.31301 426.511 4.03801C426.511 3.76301 426.286 3.53801 426.011 3.53801C425.736 3.53801 425.511 3.76301 425.511 4.03801ZM302.457 7.41101C300.012 8.991 296.213 12.254 294.014 14.661L290.018 19.038L295.014 14.352C297.763 11.774 302.036 8.51701 304.511 7.11401C306.986 5.71001 308.537 4.557 307.957 4.55C307.377 4.543 304.902 5.83101 302.457 7.41101ZM427.511 5.03801C427.511 5.31301 427.736 5.53801 428.011 5.53801C428.286 5.53801 428.511 5.31301 428.511 5.03801C428.511 4.76301 428.286 4.53801 428.011 4.53801C427.736 4.53801 427.511 4.76301 427.511 5.03801ZM10.438 7.793C9.023 9.028 7.245 10.938 6.486 12.038C5.727 13.138 6.997 12.259 9.308 10.085C13.143 6.47801 13.969 5.52901 13.261 5.543C13.124 5.546 11.853 6.558 10.438 7.793ZM432.126 7.70601C433.713 8.89801 436.39 11.035 438.075 12.456C439.76 13.876 438.887 12.901 436.135 10.288C433.382 7.67501 430.705 5.53801 430.186 5.53801C429.666 5.53801 430.539 6.51301 432.126 7.70601ZM148.525 11.141C151.008 13.834 156.018 20.763 159.66 26.538C163.302 32.313 179.862 58.638 196.459 85.038C213.057 111.438 227.257 133.67 228.015 134.443C229.191 135.642 230.282 134.048 235.456 123.567C238.791 116.812 240.921 111.783 240.188 112.391C239.149 113.253 238.388 112.663 236.729 109.713C233.279 103.574 199.538 50.34 196.78 46.683C193.748 42.664 186.474 37.874 181.276 36.475C179.205 35.917 177.511 35.077 177.511 34.608C177.511 34.138 175.54 31.563 173.132 28.884C168.938 24.219 161.491 19.538 158.264 19.538C157.424 19.538 154.773 17.114 152.374 14.151C149.974 11.189 147.111 8.19701 146.011 7.50401C144.911 6.81001 146.042 8.44701 148.525 11.141ZM4.511 15.038C4.511 15.313 4.736 15.538 5.011 15.538C5.286 15.538 5.511 15.313 5.511 15.038C5.511 14.763 5.286 14.538 5.011 14.538C4.736 14.538 4.511 14.763 4.511 15.038ZM3.135 18.077C2.792 18.97 2.54 20.227 2.574 20.87C2.609 21.512 3.069 20.96 3.596 19.643C4.123 18.325 4.375 17.069 4.156 16.85C3.937 16.631 3.477 17.183 3.135 18.077ZM442.905 19.128C446.496 26.568 446.595 31.973 446.283 204.538C446.035 341.911 445.726 374.779 444.653 377.947C442.56 384.127 438.672 389.231 433.65 392.391C424.344 398.246 427.682 398.038 342.918 398.038H264.826L266.714 401.538C269.637 406.956 275.281 411.395 281.788 413.392C286.784 414.926 288.008 415.789 289.85 419.073C292.619 424.008 299.147 428.993 305.805 431.256C310.566 432.874 317.298 433.05 384.511 433.313C461.152 433.614 468.03 433.32 475.844 429.408C485.072 424.789 489.813 417.971 491.515 406.871C492.223 402.254 492.474 344.906 492.287 230.038C492.019 64.658 491.959 59.916 490.082 55.538C486.296 46.71 480.498 41.238 471.182 37.701C468.024 36.503 465.643 34.639 463.515 31.702C460.205 27.133 453.436 22.327 447.608 20.408C445.63 19.756 443.427 18.506 442.713 17.631C441.875 16.603 441.944 17.135 442.905 19.128ZM288.916 20.693C288.473 21.408 288.641 21.576 289.356 21.133C290.509 20.421 290.904 19.538 290.07 19.538C289.827 19.538 289.308 20.058 288.916 20.693ZM1.669 24.538C1.669 25.913 1.896 26.476 2.173 25.788C2.451 25.101 2.451 23.976 2.173 23.288C1.896 22.601 1.669 23.163 1.669 24.538ZM286.511 24.538C285.922 25.638 285.666 26.538 285.941 26.538C286.216 26.538 286.922 25.638 287.511 24.538C288.1 23.438 288.356 22.538 288.081 22.538C287.806 22.538 287.1 23.438 286.511 24.538ZM282.511 31.538C281.389 33.738 280.695 35.538 280.97 35.538C281.245 35.538 282.389 33.738 283.511 31.538C284.633 29.338 285.327 27.538 285.052 27.538C284.777 27.538 283.633 29.338 282.511 31.538ZM1 206.538C1 304.163 1.117 344.101 1.261 295.288C1.404 246.476 1.404 166.601 1.261 117.788C1.117 68.976 1 108.913 1 206.538ZM279.511 37.038C279.511 37.313 279.736 37.538 280.011 37.538C280.286 37.538 280.511 37.313 280.511 37.038C280.511 36.763 280.286 36.538 280.011 36.538C279.736 36.538 279.511 36.763 279.511 37.038ZM278.511 39.038C278.511 39.313 278.736 39.538 279.011 39.538C279.286 39.538 279.511 39.313 279.511 39.038C279.511 38.763 279.286 38.538 279.011 38.538C278.736 38.538 278.511 38.763 278.511 39.038ZM277.511 41.038C277.511 41.313 277.736 41.538 278.011 41.538C278.286 41.538 278.511 41.313 278.511 41.038C278.511 40.763 278.286 40.538 278.011 40.538C277.736 40.538 277.511 40.763 277.511 41.038ZM272.511 50.538C270.299 54.938 268.714 58.538 268.989 58.538C269.264 58.538 271.299 54.938 273.511 50.538C275.723 46.138 277.308 42.538 277.033 42.538C276.758 42.538 274.723 46.138 272.511 50.538ZM267.511 60.038C267.511 60.313 267.736 60.538 268.011 60.538C268.286 60.538 268.511 60.313 268.511 60.038C268.511 59.763 268.286 59.538 268.011 59.538C267.736 59.538 267.511 59.763 267.511 60.038ZM266.511 62.038C266.511 62.313 266.736 62.538 267.011 62.538C267.286 62.538 267.511 62.313 267.511 62.038C267.511 61.763 267.286 61.538 267.011 61.538C266.736 61.538 266.511 61.763 266.511 62.038ZM265.511 64.038C265.511 64.313 265.736 64.538 266.011 64.538C266.286 64.538 266.511 64.313 266.511 64.038C266.511 63.763 266.286 63.538 266.011 63.538C265.736 63.538 265.511 63.763 265.511 64.038ZM261.011 72.538C259.072 76.388 257.711 79.538 257.986 79.538C258.261 79.538 260.072 76.388 262.011 72.538C263.95 68.688 265.311 65.538 265.036 65.538C264.761 65.538 262.95 68.688 261.011 72.538ZM256.511 81.038C256.511 81.313 256.736 81.538 257.011 81.538C257.286 81.538 257.511 81.313 257.511 81.038C257.511 80.763 257.286 80.538 257.011 80.538C256.736 80.538 256.511 80.763 256.511 81.038ZM255.511 83.038C255.511 83.313 255.736 83.538 256.011 83.538C256.286 83.538 256.511 83.313 256.511 83.038C256.511 82.763 256.286 82.538 256.011 82.538C255.736 82.538 255.511 82.763 255.511 83.038ZM254.511 85.038C254.511 85.313 254.736 85.538 255.011 85.538C255.286 85.538 255.511 85.313 255.511 85.038C255.511 84.763 255.286 84.538 255.011 84.538C254.736 84.538 254.511 84.763 254.511 85.038ZM253.511 87.038C253.511 87.313 253.736 87.538 254.011 87.538C254.286 87.538 254.511 87.313 254.511 87.038C254.511 86.763 254.286 86.538 254.011 86.538C253.736 86.538 253.511 86.763 253.511 87.038ZM248.511 96.538C246.299 100.938 244.714 104.538 244.989 104.538C245.264 104.538 247.299 100.938 249.511 96.538C251.723 92.138 253.308 88.538 253.033 88.538C252.758 88.538 250.723 92.138 248.511 96.538ZM243.511 106.038C243.511 106.313 243.736 106.538 244.011 106.538C244.286 106.538 244.511 106.313 244.511 106.038C244.511 105.763 244.286 105.538 244.011 105.538C243.736 105.538 243.511 105.763 243.511 106.038ZM242.511 108.038C242.511 108.313 242.736 108.538 243.011 108.538C243.286 108.538 243.511 108.313 243.511 108.038C243.511 107.763 243.286 107.538 243.011 107.538C242.736 107.538 242.511 107.763 242.511 108.038ZM241.511 110.038C241.511 110.313 241.736 110.538 242.011 110.538C242.286 110.538 242.511 110.313 242.511 110.038C242.511 109.763 242.286 109.538 242.011 109.538C241.736 109.538 241.511 109.763 241.511 110.038ZM238.357 225.538C237.447 226.913 222.439 254.363 205.006 286.538C187.573 318.713 171.384 347.513 169.031 350.538C163.871 357.174 158.016 360.447 150.761 360.752C147.874 360.874 145.511 361.29 145.511 361.678C145.511 363.267 152.358 371.201 156.369 374.26C158.734 376.064 162.453 377.825 164.634 378.174C167.53 378.637 168.97 379.513 169.975 381.423C171.844 384.976 179.259 391.942 183.382 394.017C187.799 396.241 198.813 396.273 204.082 394.077C208.551 392.215 214.66 386.697 217.964 381.538C219.197 379.613 224.662 369.938 230.108 360.038L240.011 342.038L240.289 299.538C240.442 276.163 240.442 249.388 240.289 240.038C240.024 223.835 239.933 223.155 238.357 225.538ZM53.511 228.986C53.511 234.024 57.085 316.435 59.029 356.216C61.19 400.454 62.527 398.417 31.139 398.727C20.619 398.831 14.544 399.077 17.641 399.273L23.27 399.631L23.928 403.743C25.354 412.659 30.539 416.538 41.031 416.538C46.466 416.538 46.511 416.563 46.511 419.57C46.511 425.18 49.075 429.438 53.723 431.548C57.483 433.255 60.35 433.497 77.011 433.514C98.833 433.538 101.66 432.803 104.846 426.283C106.611 422.67 106.621 421.24 105.102 388.283C104.234 369.448 103.286 347.738 102.995 340.038C102.705 332.338 102.207 322.271 101.889 317.667C101.499 312.022 101.648 309.505 102.345 309.935C102.914 310.287 101.696 307.529 99.64 303.806C93.346 292.41 55.315 227.1 54.385 226.088C53.873 225.532 53.511 226.733 53.511 228.986ZM103.511 312.038C103.511 312.313 103.736 312.538 104.011 312.538C104.286 312.538 104.511 312.313 104.511 312.038C104.511 311.763 104.286 311.538 104.011 311.538C103.736 311.538 103.511 311.763 103.511 312.038ZM105.511 315.538C106.1 316.638 106.806 317.538 107.081 317.538C107.356 317.538 107.1 316.638 106.511 315.538C105.922 314.438 105.216 313.538 104.941 313.538C104.666 313.538 104.922 314.438 105.511 315.538ZM108.511 320.538C109.1 321.638 109.806 322.538 110.081 322.538C110.356 322.538 110.1 321.638 109.511 320.538C108.922 319.438 108.216 318.538 107.941 318.538C107.666 318.538 107.922 319.438 108.511 320.538ZM111.511 325.538C112.1 326.638 112.806 327.538 113.081 327.538C113.356 327.538 113.1 326.638 112.511 325.538C111.922 324.438 111.216 323.538 110.941 323.538C110.666 323.538 110.922 324.438 111.511 325.538ZM115.011 331.538C115.864 333.188 116.787 334.538 117.062 334.538C117.337 334.538 116.864 333.188 116.011 331.538C115.158 329.888 114.235 328.538 113.96 328.538C113.685 328.538 114.158 329.888 115.011 331.538ZM118.821 338.038C119.666 339.688 121.107 341.938 122.021 343.038C122.935 344.138 122.672 343.238 121.437 341.038C118.712 336.184 116.67 333.844 118.821 338.038ZM124.5 347.038C128.996 353.459 138.714 361.669 140.136 360.246C140.378 360.005 139.192 359.234 137.502 358.534C135.811 357.834 131.879 354.511 128.764 351.15C125.648 347.788 123.73 345.938 124.5 347.038ZM239.885 359.038C239.887 365.088 240.052 367.434 240.251 364.251C240.45 361.069 240.448 356.119 240.247 353.251C240.046 350.384 239.883 352.988 239.885 359.038ZM142.324 361.221C143.045 361.51 143.908 361.474 144.24 361.142C144.572 360.81 143.982 360.574 142.928 360.617C141.763 360.665 141.526 360.902 142.324 361.221ZM240.669 373.538C240.669 374.913 240.896 375.476 241.173 374.788C241.451 374.101 241.451 372.976 241.173 372.288C240.896 371.601 240.669 372.163 240.669 373.538ZM241.59 378.121C241.638 379.286 241.875 379.523 242.194 378.726C242.483 378.004 242.447 377.141 242.115 376.809C241.783 376.477 241.547 377.067 241.59 378.121ZM242.551 380.838C242.465 382.56 245.501 387.189 248.676 390.176C252.058 393.358 258.351 397.031 259.114 396.268C259.344 396.039 257.766 395.055 255.608 394.082C251.243 392.114 246.563 387.595 244.168 383.038C243.301 381.388 242.573 380.398 242.551 380.838ZM1.59 389.121C1.638 390.286 1.875 390.523 2.194 389.726C2.483 389.004 2.447 388.141 2.115 387.809C1.783 387.477 1.547 388.067 1.59 389.121ZM2.511 392.216C2.511 392.773 3.523 394.085 4.761 395.133L7.011 397.038L5.022 394.538C3.928 393.163 2.915 391.851 2.772 391.621C2.628 391.392 2.511 391.66 2.511 392.216ZM7.511 397.038C7.511 397.313 7.736 397.538 8.011 397.538C8.286 397.538 8.511 397.313 8.511 397.038C8.511 396.763 8.286 396.538 8.011 396.538C7.736 396.538 7.511 396.763 7.511 397.038ZM261.324 397.221C262.045 397.51 262.908 397.474 263.24 397.142C263.572 396.81 262.982 396.574 261.928 396.617C260.763 396.665 260.526 396.902 261.324 397.221ZM9.511 398.038C9.511 398.313 9.736 398.538 10.011 398.538C10.286 398.538 10.511 398.313 10.511 398.038C10.511 397.763 10.286 397.538 10.011 397.538C9.736 397.538 9.511 397.763 9.511 398.038Z" stroke="black" stroke-width="2" mask="url(#path-1-outside-1_3_17)"/>
</svg>
